<?xml version="1.0" encoding="utf-8"?>
<!-- Generator: Adobe Illustrator 24.1.0, SVG Export Plug-In . SVG Version: 6.00 Build 0)  -->
<svg version="1.1" id="f2f1e99e-1651-46a6-b45f-af903ca31f8b"
	 xmlns="http://www.w3.org/2000/svg" xmlns:xlink="http://www.w3.org/1999/xlink" x="0px" y="0px" viewBox="0 0 887 542.5"
	 style="enable-background:new 0 0 887 542.5;" xml:space="preserve">
<style type="text/css">
	.st0{fill:#E6E6E6;}
	.st1{fill:#FFFFFF;}
	.st2{fill:#FD674C;}
</style>
<path class="st0" d="M0,527.9"/>
<rect x="176.7" y="116.5" class="st0" width="551" height="343.1"/>
<rect x="213.6" y="182.6" class="st1" width="100.9" height="65.6"/>
<rect x="339" y="182.6" class="st1" width="100.9" height="65.6"/>
<rect x="464.4" y="182.6" class="st1" width="100.9" height="65.6"/>
<rect x="589.8" y="182.6" class="st1" width="100.9" height="65.6"/>
<rect x="213.6" y="275.5" class="st1" width="100.9" height="65.6"/>
<rect x="339" y="275.5" class="st1" width="100.9" height="65.6"/>
<rect x="464.4" y="275.5" class="st1" width="100.9" height="65.6"/>
<rect x="589.8" y="275.5" class="st1" width="100.9" height="65.6"/>
<rect x="213.6" y="368.3" class="st1" width="100.9" height="65.6"/>
<rect x="339" y="368.3" class="st1" width="100.9" height="65.6"/>
<rect x="464.4" y="368.3" class="st1" width="100.9" height="65.6"/>
<rect x="589.8" y="368.3" class="st1" width="100.9" height="65.6"/>
<circle class="st1" cx="321" cy="141.7" r="15.1"/>
<circle class="st1" cx="571.3" cy="141.7" r="15.1"/>
<rect x="314.9" y="76.2" class="st0" width="12.1" height="69.6"/>
<rect x="565.2" y="76.2" class="st0" width="12.1" height="69.6"/>
<path class="st2" d="M663.1,215.4c0,12.6-10.2,22.7-22.8,22.7c-12.6,0-22.7-10.2-22.7-22.8c0-12.6,10.2-22.7,22.8-22.7
	c7.8,0,15,4,19.2,10.6C661.9,206.9,663.1,211.1,663.1,215.4z"/>
<path class="st1" d="M659.6,203.2l-22.5,22.5c-1.4-2.2-9.3-12.3-9.3-12.3c1-1,2.1-2,3.2-2.8l6.5,8.7l19.4-19.4
	C657.9,200.9,658.8,202,659.6,203.2z"/>
<path class="st2" d="M412.3,308.3c0,12.6-10.2,22.7-22.8,22.7c-12.6,0-22.7-10.2-22.7-22.8c0-12.6,10.2-22.7,22.8-22.7
	c7.8,0,15,4,19.2,10.6C411.1,299.7,412.3,303.9,412.3,308.3z"/>
<path class="st1" d="M408.8,296.1l-22.5,22.5c-1.4-2.2-9.3-12.3-9.3-12.3c1-1,2.1-2,3.2-2.8l6.5,8.7l19.4-19.4
	C407.1,293.7,408,294.9,408.8,296.1z"/>
<path class="st2" d="M286.9,308.3c0,12.6-10.2,22.7-22.8,22.7c-12.6,0-22.7-10.2-22.7-22.8c0-12.6,10.2-22.7,22.8-22.7
	c7.8,0,15,4,19.2,10.6C285.7,299.7,286.9,303.9,286.9,308.3z"/>
<path class="st1" d="M283.4,296.1l-22.5,22.5c-1.4-2.2-9.3-12.3-9.3-12.3c1-1,2.1-2,3.2-2.8l6.5,8.7l19.4-19.4
	C281.7,293.7,282.6,294.9,283.4,296.1z"/>
</svg>
