<?xml version="1.0" encoding="utf-8"?>
<!-- Generator: Adobe Illustrator 24.1.0, SVG Export Plug-In . SVG Version: 6.00 Build 0)  -->
<svg version="1.1" id="a8904fed-7223-4ff2-9071-b444910320a0"
	 xmlns="http://www.w3.org/2000/svg" xmlns:xlink="http://www.w3.org/1999/xlink" x="0px" y="0px" viewBox="0 0 1224 792"
	 style="enable-background:new 0 0 1224 792;" xml:space="preserve">
<style type="text/css">
	.st0{fill:#3F3D56;}
	.st1{fill:#CCCCCC;}
	.st2{fill:#F2F2F2;}
	.st3{fill:none;}
	.st4{fill:#FC9F92;}
	.st5{fill:#F9988C;}
</style>
<path class="st0" d="M333,372l-1.1-0.1c12-20.4,41.7-39,84.1-52.2c104.1-32.5,256.9-26.3,341.2,14c23.3,11,39.6,24.1,47.9,37.9
	l-1.1,0.1c-25.1-42.7-122-72.3-235.4-72.3C456.7,299.4,357.6,329.9,333,372z"/>
<polygon class="st0" points="236.1,431.3 229.8,421.1 287,372 434.1,372 434.1,386.4 381.1,443.6 319.7,455.7 "/>
<polygon class="st1" points="459.4,400.8 459.4,368.9 440.1,368.9 440.1,379 434.1,372 385.1,421.1 376.9,429.2 366.7,470.1 
	385.1,515 479.1,515 479.1,423.1 "/>
<rect x="229.8" y="421.1" class="st2" width="155.2" height="93.9"/>
<rect x="331" y="450.7" class="st0" width="32.7" height="28.6"/>
<rect x="289.1" y="449.6" class="st1" width="28.6" height="65.3"/>
<polygon class="st0" points="256.3,459.9 256.3,449.6 244.2,449.6 244.2,459.9 255.5,459.9 "/>
<polygon class="st0" points="255.5,468 244.2,468 244.2,478.2 256.3,478.2 256.3,468 "/>
<rect x="264.6" y="449.6" class="st0" width="12.3" height="10.2"/>
<rect x="264.6" y="468" class="st0" width="12.3" height="10.2"/>
<polygon class="st0" points="429,460.9 429,450.7 416.7,450.7 416.7,460.9 428,460.9 "/>
<polygon class="st0" points="428,469 416.7,469 416.7,479.3 429,479.3 429,469 "/>
<rect x="437.2" y="450.7" class="st0" width="12.3" height="10.2"/>
<rect x="437.2" y="469" class="st0" width="12.3" height="10.2"/>
<polygon class="st0" points="674.3,439 668.3,428.8 725.4,379.8 872.5,379.8 872.5,394 819.3,451.2 758.1,463.5 "/>
<polygon class="st1" points="897.8,408.5 897.8,376.5 878.6,376.5 878.6,386.6 872.5,379.8 823.5,428.8 815.3,437 805.1,477.8 
	823.5,522.7 917.4,522.7 917.4,430.9 "/>
<rect x="668.3" y="428.8" class="st2" width="155.2" height="93.9"/>
<rect x="769.3" y="458.4" class="st0" width="32.7" height="28.6"/>
<rect x="727.5" y="457.4" class="st1" width="28.6" height="65.3"/>
<polygon class="st0" points="694.8,467.6 694.8,457.4 682.5,457.4 682.5,467.6 693.7,467.6 "/>
<polygon class="st0" points="693.7,475.8 682.5,475.8 682.5,486 694.8,486 694.8,475.8 "/>
<rect x="702.9" y="457.4" class="st0" width="12.3" height="10.2"/>
<rect x="702.9" y="475.8" class="st0" width="12.3" height="10.2"/>
<polygon class="st0" points="867.3,468.6 867.3,458.4 855.2,458.4 855.2,468.6 866.3,468.6 "/>
<polygon class="st0" points="866.3,476.8 855.2,476.8 855.2,487 867.3,487 867.3,476.8 "/>
<rect x="875.6" y="458.4" class="st0" width="12.3" height="10.2"/>
<rect x="875.6" y="476.8" class="st0" width="12.3" height="10.2"/>
<path class="st1" d="M749.3,519.4"/>
<line class="st3" x1="43.5" y1="655" x2="43.5" y2="653"/>
<line class="st3" x1="1180.5" y1="653" x2="1180.5" y2="655"/>
<line class="st3" x1="511.2" y1="514.1" x2="508.3" y2="514.1"/>
<line class="st3" x1="765.1" y1="518.4" x2="762.1" y2="518.4"/>
<path class="st0" d="M663.6,308.2c-1.9,0.7-5.2,1.5-8.9,1.9c-10.4,1.5-24.4,1.9-24.4,1.9s-72.7,7-127.4-19.1c0,0-8-4.9-0.6-11.4
	c1.2-1,2.4-1.8,3.6-2.5l0.1-0.1c0.9-0.9,1.8-1.8,2.7-2.4c2.8-2.1,7.6-4.6,13.5-3.6l143.2,27C665.2,300.3,670.5,305.3,663.6,308.2z"
	/>
<path class="st0" d="M635,296.1l29.9-24.7l13.2,2.7l-12.9,26.2C665.2,300.3,635.3,300.4,635,296.1z"/>
<polygon class="st0" points="559.5,281 619.1,261.6 628.8,264 601.8,278 593.4,289 "/>
<path class="st4" d="M654.5,310.3c-10.4,1.5-24.4,1.9-24.4,1.9s-72.7,7-127.4-19.1c0,0-8-4.9-0.6-11.4v0.1c0,0,11.7,9.3,68,17
	L654.5,310.3z"/>
<path class="st0" d="M644.9,309.7l26.7,12.7l6.7-0.9l-16-13.9C662.4,307.7,643.1,302.8,644.9,309.7z"/>
<path class="st5" d="M511.9,283.2c-1.3,0-4.1-2.5-6.1-4.1c0.9-0.9,1.8-1.8,2.7-2.4c1.5,1.3,4,3.4,5.5,3.4
	C516.2,280,513.8,283.2,511.9,283.2z"/>
<path class="st0" d="M633.2,353.6l-17.2,1l-48.3-37.8l-8.9-7l-4.3-3.4c8.1-8,41.5,3.1,41.5,3.1c0.6,0.6,0.9,1.6,0.7,2.8
	c0,2.2-0.9,4.7-1.2,5.6c-0.1,0.3-0.1,0.3-0.1,0.3L633.2,353.6z"/>
</svg>
