<?xml version="1.0" encoding="utf-8"?>
<!-- Generator: Adobe Illustrator 24.1.0, SVG Export Plug-In . SVG Version: 6.00 Build 0)  -->
<svg version="1.1" id="bc3896d4-aa68-4b30-a574-b72c1cf64d5a"
	 xmlns="http://www.w3.org/2000/svg" xmlns:xlink="http://www.w3.org/1999/xlink" x="0px" y="0px" viewBox="0 0 990.8 595.8"
	 style="enable-background:new 0 0 990.8 595.8;" xml:space="preserve">
<style type="text/css">
	.st0{fill:#3F3D56;}
	.st1{fill:#FD674C;}
	.st2{fill:#FFFFFF;}
</style>
<rect x="294.3" y="212.3" class="st0" width="453.9" height="163"/>
<path class="st1" d="M455.9,344.2c0,0-0.1,0-0.1,0c-1.2,0.2-2.4,0.4-3.6,0.5c-0.4,0-0.8,0.1-1.2,0.1c-0.4,0-0.8,0.1-1.3,0.1
	c-0.7,0-1.4,0.1-2.1,0.1c-0.3,0-0.6,0-0.9,0h-0.2c-0.4,0-0.7,0-1.1,0c-0.3,0-0.7,0-1,0c-0.2,0-0.4,0-0.5,0
	c-28-1.5-49.4-25.4-47.9-53.4c1.5-28,25.4-49.4,53.4-47.9c8,0.4,15.8,2.7,22.7,6.8c-24.2,14-32.5,45.1-18.5,69.3
	c4.4,7.7,10.8,14,18.5,18.5C467,341.2,461.6,343.2,455.9,344.2z"/>
<path class="st1" d="M532.1,334.1c1.9,1.5,4,2.9,6.1,4.2c-7.7,4.5-16.4,6.8-25.3,6.8h-0.7c-28-0.3-50.4-23.3-50.1-51.3
	c0.3-28,23.3-50.4,51.3-50.1c8.7,0.1,17.3,2.5,24.8,6.8c-24.2,13.9-32.5,44.9-18.6,69.1C522.9,325.2,527.1,330.1,532.1,334.1z"/>
<path class="st1" d="M629.9,294.4c0,28-22.7,50.7-50.7,50.7c-28,0-50.7-22.7-50.7-50.7c0-28,22.7-50.7,50.7-50.7h0
	C607.2,243.7,629.9,266.4,629.9,294.4C629.9,294.4,629.9,294.4,629.9,294.4z"/>
<path class="st2" d="M599.7,334.2c0,2.3-0.2,4.6-0.7,6.8c-12.7,5.4-27,5.4-39.7,0c-0.5-2.2-0.7-4.5-0.7-6.8c0-11.9,6.1-22,14.4-25.4
	c-8-3.4-11.7-12.6-8.4-20.5c3.4-8,12.6-11.7,20.5-8.4s11.7,12.6,8.4,20.5c-1.6,3.8-4.6,6.8-8.4,8.4
	C593.7,312.2,599.7,322.3,599.7,334.2z"/>
<path class="st2" d="M532.1,334.1v0.2c-0.2,2.8-0.6,5.7-1.2,8.4c-5.9,2.5-11.9,2.3-18.7,2.4h-0.7c-6.8,0-13.6-1.4-19.8-4
	c0-0.2-0.1-0.4-0.1-0.6c-0.4-2-0.6-4.1-0.6-6.2c0-11.9,6.1-22,14.4-25.4c-8-3.4-11.7-12.6-8.4-20.5c2.4-5.8,8.1-9.6,14.5-9.6
	c1.2,0,2.5,0.1,3.6,0.4C509,299.2,515.7,321.1,532.1,334.1L532.1,334.1z"/>
<path class="st2" d="M466.9,334.9c0,2.1-0.2,4.1-0.7,6.1c-4.5,1.9-9.3,3.2-14.1,3.7c-0.4,0-0.8,0.1-1.2,0.1c-0.4,0-0.8,0.1-1.3,0.1
	c-0.7,0-1.4,0.1-2.1,0.1c-0.1,0-0.3,0-0.4,0h-0.7c-0.4,0-0.7,0-1.1,0c-0.3,0-0.7,0-1,0c-0.2,0-0.4,0-0.5,0c-5.9-0.3-11.8-1.6-17.2-4
	c0,0,0-0.1,0-0.1c0-0.2-0.1-0.4-0.1-0.5c-0.4-2-0.6-4.1-0.6-6.2c0-11.9,6.1-22,14.4-25.4c-8-3.4-11.7-12.6-8.4-20.5
	c2.4-5.8,8.1-9.6,14.5-9.6c0.9,0,1.7,0.1,2.6,0.2C442.4,299.5,449.6,322,466.9,334.9L466.9,334.9z"/>
<circle class="st1" cx="306.9" cy="227.5" r="51.2"/>
<polygon class="st2" points="339.1,222.5 311.9,222.5 311.9,195.3 301.8,195.3 301.8,222.5 274.6,222.5 274.6,232.6 301.8,232.6 
	301.8,259.7 311.9,259.7 311.9,232.6 339.1,232.6 "/>
</svg>
